PathFileType	4	(X/Y/Z)	D:\TRACE\spot_10-12-23\spot_arm_body_motion_1_5-v60.trc
DataRate	CameraRate	NumFrames	NumMarkers	Units	OrigDataRate	OrigDataStartFrame	OrigNumFrames
100.00	100.00	      21	9	mm	100.00	1	      7000
Frame#	Time	front left toe			Front right toe			aft left toe			aft right toe			Arm			FL body			FR body			AL Body			AR Body			
		X1	Y1	Z1	X2	Y2	Z2	X3	Y3	Z3	X4	Y4	Z4	X5	Y5	Z5	X6	Y6	Z6	X7	Y7	Z7	X8	Y8	Z8	X9	Y9	Z9	

1	0.000	-147.28018	17.62595	-88.81448	150.04732	13.69903	-78.76542	-176.55678	21.17044	448.54626	199.38400	18.77562	446.66571	13.32680	859.29980	-299.09714	-79.33584	546.65137	-233.64880	74.72025	551.17096	-239.39674	-51.28039	554.43640	648.27118	89.74829	553.88867	646.12335	
2	0.010	-147.27609	17.61387	-88.81617	149.37192	14.06030	-79.56831	-176.15320	20.75390	448.78006	199.42325	18.80423	446.65659	13.24135	859.95813	-298.98755	-79.38700	546.70715	-233.65536	74.81823	551.17590	-239.37714	-51.97802	554.59204	648.44110	89.99964	553.87622	646.40540	
3	0.020	-147.27022	17.65377	-88.80077	149.37059	14.11745	-79.49390	-176.55199	21.17994	448.51447	199.41164	18.81082	446.69455	12.72494	860.72516	-298.94498	-79.20199	546.70734	-233.67128	74.83633	551.23407	-239.39778	-51.98992	554.60718	648.43304	89.99977	553.87378	646.44910	
4	0.030	-147.28752	17.63580	-88.83920	150.04185	13.67972	-78.76115	-176.14977	20.71837	448.75458	199.42563	18.80340	446.70218	12.38217	861.52606	-298.91077	-79.27581	546.69769	-233.65820	74.90030	551.22418	-239.37270	-52.02950	554.58539	648.40192	89.76022	553.87738	646.14502	
5	0.040	-147.26189	17.62789	-88.83913	149.30992	14.11755	-79.59265	-176.54092	21.11476	448.49835	199.38588	18.77633	446.68506	12.06226	862.21899	-298.84073	-79.22970	546.71362	-233.70660	74.93704	551.25055	-239.35603	-52.03458	554.59424	648.40405	89.96333	553.85205	646.44403	
6	0.050	-147.25273	17.62953	-88.81744	149.34395	14.09680	-79.51060	-176.54079	21.13110	448.48831	199.44598	18.79531	446.70724	11.63999	862.89618	-298.80017	-79.19637	546.72076	-233.67230	74.90993	551.27478	-239.40631	-52.04328	554.58112	648.39514	89.77342	553.87250	646.15314	
7	0.060	-147.28380	17.61621	-88.82774	150.09203	13.64845	-78.70161	-176.54330	21.11913	448.49265	199.37802	18.77683	446.69595	11.13946	863.66211	-298.88089	-79.18612	546.73676	-233.66315	74.95596	551.27612	-239.36308	-51.96827	554.57214	648.40198	89.79136	553.88104	646.16858	
8	0.070	-147.25388	17.61938	-88.80139	149.39064	14.08720	-79.50475	-176.54256	21.15720	448.47742	199.42999	18.78654	446.69485	10.65146	864.20398	-298.94940	-79.20367	546.76300	-233.66177	74.97807	551.30737	-239.36371	-51.93864	554.60156	648.40710	89.84381	553.85046	646.15710	
9	0.080	-147.28424	17.63483	-88.81408	150.05167	13.66961	-78.78094	-176.11305	20.70174	448.77863	199.41760	18.78761	446.67697	10.15348	864.69568	-298.97772	-79.24472	546.83051	-233.63565	75.03931	551.36377	-239.34233	-51.88198	554.61414	648.43573	89.88741	553.85944	646.15082	
10	0.090	-147.23048	17.61532	-88.81063	149.41959	14.08990	-79.53825	-176.14783	20.73771	448.80350	199.40912	18.78723	446.66504	9.68368	865.31207	-298.91721	-79.34164	546.96411	-233.58234	74.94075	551.40784	-239.37585	-51.90660	554.59998	648.42963	89.90046	553.86542	646.13062	
11	0.100	-147.24683	17.62162	-88.82225	149.38940	14.05898	-79.53982	-176.11685	20.78801	448.77707	199.38876	18.78788	446.65857	9.28549	865.66028	-298.98798	-79.21866	546.88123	-233.66122	75.02204	551.48230	-239.32872	-51.87276	554.64569	648.39636	89.89976	553.89026	646.12640	
12	0.110	-147.24304	17.61779	-88.84103	149.39992	14.05904	-79.58653	-176.47624	21.15664	448.53207	199.42815	18.76021	446.68713	8.79908	866.04572	-299.05780	-79.25908	546.97162	-233.68120	75.00818	551.55585	-239.39467	-51.85147	554.63123	648.34949	89.94467	553.89752	646.09259	
13	0.120	-147.23538	17.62133	-88.80317	150.07825	13.66711	-78.82498	-176.03416	20.70947	448.80853	199.41936	18.77847	446.65063	8.39050	866.34979	-299.10754	-79.30624	547.00360	-233.64034	75.02467	551.59601	-239.35478	-51.85909	554.61609	648.37830	89.99679	553.88440	646.10303	
14	0.130	-147.24400	17.61925	-88.82242	149.38663	14.11018	-79.58811	-176.48119	21.18492	448.50409	199.46568	18.78400	446.65759	7.98825	866.57825	-299.12469	-79.33438	547.05872	-233.63074	75.01500	551.66998	-239.34276	-51.97392	554.71033	648.41956	90.02143	553.87451	646.10822	
15	0.140	-147.24171	17.26268	-88.82277	149.99863	13.80773	-78.15173	-176.48448	20.82294	448.56638	199.43915	18.54543	446.67075	7.58423	866.78723	-299.17831	-79.32967	547.18243	-233.62233	75.01598	551.80487	-239.36732	-51.90826	554.71094	648.36725	90.04352	553.90289	646.08423	
16	0.150	-147.34207	17.14833	-88.84181	150.10689	13.67184	-78.14356	-176.60658	20.79163	448.49588	199.47043	18.49511	446.60953	7.48152	866.80811	-299.45456	-79.32751	547.73376	-233.55145	75.06642	552.34534	-239.23135	-51.91039	554.99463	648.43683	90.07300	554.16644	646.19232	
17	0.160	-147.31197	17.19273	-88.92789	149.98788	13.84861	-78.26898	-176.49991	20.91829	448.42996	199.40546	18.55949	446.58090	7.59699	866.47784	-299.97180	-79.21475	548.94849	-233.48410	75.60651	553.40393	-239.10265	-50.58793	555.53931	648.34412	90.17595	554.76038	646.23981	
18	0.170	-147.32698	17.34193	-88.95666	149.22678	13.96648	-78.98301	-175.98453	20.54557	448.67081	199.09151	17.77248	445.97086	8.11959	866.11725	-300.54886	-79.35785	550.27100	-233.33998	74.87074	554.82104	-238.98943	-50.73879	556.29169	648.54425	90.45831	555.64862	646.40851	
19	0.180	-147.33295	17.34346	-89.03706	149.92143	13.98719	-78.45811	-176.41885	20.93472	448.37628	199.42226	18.09771	446.06454	8.68333	865.95752	-301.17020	-79.43313	551.88739	-233.23398	74.87222	556.41748	-238.78922	-50.62809	557.27087	648.65363	90.30219	556.46906	646.55835	
20	0.190	-147.31296	17.37140	-89.10467	149.96730	13.50973	-79.12803	-176.35545	20.94404	448.34299	199.67789	18.40471	446.15283	9.07941	865.96198	-301.65936	-79.35479	553.79126	-232.97427	74.88337	558.14093	-238.60594	-50.47882	558.57385	648.78320	90.96906	557.92114	647.33575	
21	0.200	-147.28070	17.42421	-89.20198	149.14362	14.07713	-79.35394	-175.91324	20.44022	448.49686	199.60132	18.44085	446.12717	9.19938	866.02057	-302.07602	-79.23382	555.81958	-232.73991	74.88079	560.29016	-238.44240	-50.38842	559.81183	648.97980	90.44742	558.88440	646.97467	
